<svg viewBox="0 0 1080 1080" fill="none" xmlns="http://www.w3.org/2000/svg">      <defs>  <filter id="filter" x="-20%" y="-20%" width="140%" height="140%" filterUnits="objectBoundingBox" primitiveUnits="userSpaceOnUse" color-interpolation-filters="linearRGB">    <feMorphology operator="dilate" radius="20 20" in="SourceAlpha" result="morphology"/>    <feFlood flood-color="#ffffff" flood-opacity="1" result="flood"/>    <feComposite in="flood" in2="morphology" operator="in" result="composite"/>    <feMerge result="merge">          <feMergeNode in="composite" result="mergeNode"/>      <feMergeNode in="SourceGraphic" result="mergeNode1"/>      </feMerge>  </filter></defs>      <g id="notion-avatar" filter="url(#filter)">        <g id="notion-avatar-face" fill="#ffffff">      <!--?xml version="1.0" encoding="UTF-8"?-->    <!-- Generator: Sketch 63.1 (92452) - https://sketch.com -->    <title>Face/ 14</title>    <desc>Created with Sketch.</desc>    <g id="Face/-14" stroke="none" stroke-width="1" fill-rule="evenodd" stroke-linecap="round" stroke-linejoin="round">        <path d="M532,379 C664.54834,379 772,486.45166 772,619 C772,642.160109 783.234546,656.244677 777.453024,678.979248 C763.583554,733.517917 758.701879,941.343666 598,909 C539.618945,897.249936 461,880 433,858 C405,836 342.170039,758.772836 320.189513,718.584987 C317.498129,718.859681 314.765451,719 312,719 C267.81722,719 232,683.18278 232,639 C232,599.134956 261.158843,566.080325 299.312086,560.00055 C325.599297,455.979213 419.809919,379 532,379 Z M295.858895,624.545187 L304.141105,655.454813" id="Path" stroke="#000000" stroke-width="24"/>    </g>    </g><g id="notion-avatar-nose">      <g id="Nose/ 13"><path id="Path" fill-rule="evenodd" clip-rule="evenodd" d="M644 560C644 560 665.892 613.522 673 623C676 627 693.906 641.256 692.774 653.58C690.065 683.076 644 684.359 644 684.359C644 684.359 700 689.489 700 653.58C700 637.222 687 632 674 620C666.959 613.5 644 560 644 560Z" fill="black" stroke="black" stroke-width="6" stroke-linecap="round" stroke-linejoin="round"/></g>    </g><g id="notion-avatar-mouth">      <g id="Mouth/ 17"><g id="Group"><path id="Path" fill-rule="evenodd" clip-rule="evenodd" d="M696 748.043C696 748.043 652.693 751.692 624.619 750.391C596.544 749.09 544 741 544 741C544 741 567.514 813 621.26 813C650.652 813 664.489 801.44 679.204 779.348C685.215 770.324 696 748.043 696 748.043Z" stroke="black" stroke-width="12" stroke-linecap="round" stroke-linejoin="round"/><path id="Path_2" d="M708 745.444C708 745.444 660.212 753.222 622.485 750.111C584.758 747 542 740 542 740" stroke="black" stroke-width="12" stroke-linecap="round" stroke-linejoin="round"/><path id="Path_3" d="M537 745C537 745 539.438 740.385 542.688 738.077C545.938 735.769 550 735 550 735" stroke="black" stroke-width="12" stroke-linecap="round" stroke-linejoin="round"/><path id="Path_4" d="M569 788C569 788 588.349 777 625.365 777C662.381 777 675 786.429 675 786.429" stroke="black" stroke-width="12" stroke-linecap="round" stroke-linejoin="round"/></g></g>    </g><g id="notion-avatar-eyes">      <!--?xml version="1.0" encoding="UTF-8"?-->    <title>Eyes/ 10</title>    <g id="Eyes/-10" stroke="none" stroke-width="1" fill="none" fill-rule="evenodd">        <g id="Group" transform="translate(520.000000, 512.000000)">            <g transform="translate(140.000000, 0.000000)">                <circle id="Oval" fill="#000000" cx="52" cy="28" r="24"/>                <path d="M1,16 C24.2727273,8 41.7272727,4 53.3636364,4 C65,4 79.5454545,8 97,16" id="Path" stroke="#000000" stroke-width="12" stroke-linecap="round" stroke-linejoin="round" transform="translate(49.000000, 10.000000) rotate(-4.000000) translate(-49.000000, -10.000000) "/>            </g>            <g>                <circle id="Oval" fill="#000000" transform="translate(46.000000, 28.000000) scale(-1, 1) translate(-46.000000, -28.000000) " cx="46" cy="28" r="24"/>                <path d="M1,16 C24.2727273,8 41.7272727,4 53.3636364,4 C65,4 79.5454545,8 97,16" id="Path" stroke="#000000" stroke-width="12" stroke-linecap="round" stroke-linejoin="round" transform="translate(49.000000, 10.000000) scale(-1, 1) rotate(-4.000000) translate(-49.000000, -10.000000) "/>            </g>        </g>    </g>    </g><g id="notion-avatar-eyebrows">      <!--?xml version="1.0" encoding="UTF-8"?-->    <title>Eyebrows/ 3</title>    <g id="Eyebrows/-3" stroke="none" stroke-width="1" fill="none" fill-rule="evenodd" stroke-linecap="round" stroke-linejoin="round">        <g id="Group" transform="translate(512.000000, 484.000000)" stroke="#000000" stroke-width="24">            <path d="M152,14.0251712 C167.712271,3.95186377 182.349308,-0.695225271 195.911111,0.0839040908 C206.159229,0.672661315 219.876442,6.74452014 237.511111,14.0251712 C241.312508,15.5946162 247.475471,17.5862258 256,20" id="Path" transform="translate(204.000000, 10.000000) scale(-1, 1) translate(-204.000000, -10.000000) "/>            <path d="M0,14.0251712 C15.7122706,3.95186377 30.3493076,-0.695225271 43.9111111,0.0839040908 C54.1592293,0.672661315 67.8764421,6.74452014 85.5111111,14.0251712 C89.3125078,15.5946162 95.4754707,17.5862258 104,20" id="Path"/>        </g>    </g>    </g><g id="notion-avatar-glasses">      <g id="Glasses/ 13"><g id="Group"><path id="Path" d="M594.966 482.529H684.378" stroke="black" stroke-width="8" stroke-linecap="round" stroke-linejoin="round"/><path id="Path_2" d="M593 517.765C593 517.765 615.694 501 638 501C660.306 501 682.412 517.765 682.412 517.765" stroke="black" stroke-width="8" stroke-linecap="round" stroke-linejoin="round"/><path id="Path_3" d="M510.484 517.569L293.827 555.771" stroke="black" stroke-width="16" stroke-linecap="round" stroke-linejoin="round"/><g id="Rectangle"><path id="Mask" fill-rule="evenodd" clip-rule="evenodd" d="M470.242 498.62C502.983 452.135 598.089 462.262 619.362 504.282C640.636 546.302 563.647 605 516.916 605C470.186 605 437.501 545.106 470.242 498.62Z" fill="#0C0C0C"/><mask id="mask0_0_1173" style="mask-type:alpha" maskUnits="userSpaceOnUse" x="457" y="468" width="166" height="137"><path id="Mask_2" fill-rule="evenodd" clip-rule="evenodd" d="M470.242 498.62C502.983 452.135 598.089 462.262 619.362 504.282C640.636 546.302 563.647 605 516.916 605C470.186 605 437.501 545.106 470.242 498.62Z" fill="white"/></mask><g mask="url(#mask0_0_1173)"><rect id="Rectangle_2" x="549.624" y="439.067" width="210" height="28" transform="rotate(60 549.624 439.067)" fill="white"/></g></g><g id="Rectangle_3"><path id="Mask_3" fill-rule="evenodd" clip-rule="evenodd" d="M804.758 498.62C772.017 452.135 676.911 462.262 655.638 504.282C634.364 546.302 711.353 605 758.084 605C804.814 605 837.499 545.106 804.758 498.62Z" fill="#0C0C0C"/><mask id="mask1_0_1173" style="mask-type:alpha" maskUnits="userSpaceOnUse" x="652" y="468" width="166" height="137"><path id="Mask_4" fill-rule="evenodd" clip-rule="evenodd" d="M804.758 498.62C772.017 452.135 676.911 462.262 655.638 504.282C634.364 546.302 711.353 605 758.084 605C804.814 605 837.499 545.106 804.758 498.62Z" fill="white"/></mask><g mask="url(#mask1_0_1173)"><rect id="Rectangle_4" x="739.624" y="439.067" width="210" height="28" transform="rotate(60 739.624 439.067)" fill="white"/></g></g><path id="Path_4" fill-rule="evenodd" clip-rule="evenodd" d="M470.242 498.62C502.983 452.135 598.089 462.262 619.362 504.282C640.636 546.302 563.647 605 516.916 605C470.186 605 437.501 545.106 470.242 498.62Z" stroke="black" stroke-width="8" stroke-linecap="round" stroke-linejoin="round"/><path id="Path_5" fill-rule="evenodd" clip-rule="evenodd" d="M804.758 498.62C772.017 452.135 676.911 462.262 655.638 504.282C634.364 546.302 711.353 605 758.084 605C804.814 605 837.499 545.106 804.758 498.62Z" stroke="black" stroke-width="8" stroke-linecap="round" stroke-linejoin="round"/></g></g>    </g><g id="notion-avatar-hair">      <g id="Hairstyle/ 38"><path id="Path" fill-rule="evenodd" clip-rule="evenodd" d="M605 263C704 296 733 387.139 733 419C733 445.483 682 437 682 437C682 437 622.089 396.832 572 388C504.631 376.121 467 422 445 424C423 426 408 437 399 463C390 489 417 540 417 540L382 655H366L328.117 564.825H287.146C265.131 517.303 245 413 269 379C293 345 327 345 327 345C327 345 336 323 373 290C410 257 506 230 605 263Z" fill="black" stroke="black" stroke-width="12" stroke-linecap="round" stroke-linejoin="round"/></g>    </g><g id="notion-avatar-accessories">      <!--?xml version="1.0" encoding="UTF-8"?-->    <title>Accessories/ 0</title>    <g id="Accessories/-0" stroke="none" stroke-width="1" fill="none" fill-rule="evenodd"/>    </g><g id="notion-avatar-details">      <!--?xml version="1.0" encoding="UTF-8"?-->    <title>Details/ 0</title>    <g id="Details/-0" stroke="none" stroke-width="1" fill="none" fill-rule="evenodd"/>    </g><g id="notion-avatar-beard">      <!--?xml version="1.0" encoding="UTF-8"?-->    <title>Beard/ 0</title>    <g id="Beard/-0" stroke="none" stroke-width="1" fill="none" fill-rule="evenodd"/>    </g>      </g>      </svg>